<svg width="47" height="42" viewBox="0 0 47 42" fill="none" xmlns="http://www.w3.org/2000/svg">
<g clip-path="url(#clip0_36_2)">
<path d="M17.5108 6.01864C18.5307 7.04403 18.5307 8.70352 17.5108 9.72891L6.30338 21L17.5108 32.2711C18.5307 33.2965 18.5307 34.9535 17.5108 35.9789C16.4908 37.0043 14.8425 37.0043 13.8226 35.9789L0.764729 22.8539C-0.25491 21.8285 -0.25491 20.1715 0.764729 19.1461L13.8226 6.01864C14.8425 4.99407 16.4908 4.99407 17.5108 6.01864Z" fill="black"/>
<path opacity="0.4" d="M33.1774 6.01864L46.233 19.1461C47.2529 20.1715 47.2529 21.8285 46.233 22.8539L33.1774 35.9789C32.1575 37.0043 30.5092 37.0043 29.4892 35.9789C28.4693 34.9535 28.4693 33.2965 29.4892 32.2711L40.6925 20.9262L29.4892 9.72891C28.4693 8.70352 28.4693 7.04403 29.4892 6.01864C30.5092 4.99407 32.1575 4.99407 33.1774 6.01864Z" fill="black"/>
</g>
<defs>
<clipPath id="clip0_36_2">
<rect width="47" height="42" fill="white"/>
</clipPath>
</defs>
</svg>