<svg width="133" height="67" viewBox="0 0 133 67" fill="none" xmlns="http://www.w3.org/2000/svg">
<rect x="0.98674" y="38.9226" width="42.4307" height="1.97352" rx="0.98676" fill="black"/>
<rect y="52.7373" width="42.4307" height="1.97352" rx="0.98676" fill="black"/>
<rect x="7.89408" y="45.83" width="42.4307" height="1.97352" rx="0.98676" fill="black"/>
<rect x="21.7087" y="0.439026" width="42.4307" height="1.97352" rx="0.98676" fill="#D9D9D9"/>
<rect x="20.722" y="14.2537" width="42.4307" height="1.97352" rx="0.98676" fill="#D9D9D9"/>
<rect x="28.6161" y="7.34631" width="42.4307" height="1.97352" rx="0.98676" fill="#D9D9D9"/>
<path d="M3.94702 21.712C3.94702 13.7741 9.93603 7.34631 17.3238 7.34631H32.0142C39.4056 7.34631 45.3909 13.7741 45.3909 21.712C45.3909 28.7359 40.6637 34.7266 34.2159 35.8791L34.0401 35.9188C32.4212 36.2069 30.8948 35.0346 30.6265 33.3059C30.3583 31.5674 31.4499 29.9281 33.0595 29.64L33.2353 29.6102C36.8339 28.9644 39.4704 25.6263 39.4704 21.712C39.4704 17.2911 36.1308 13.7046 32.0142 13.7046H17.3238C13.2071 13.7046 9.86758 17.2911 9.86758 21.712C9.86758 25.6263 12.5031 28.9644 16.1027 29.6102L16.2784 29.64C17.8881 29.9281 18.9797 31.5674 18.7114 33.3059C18.4431 35.0346 16.9167 36.2069 15.2978 35.9188L15.1221 35.8791C8.67514 34.7266 3.94702 28.7359 3.94702 21.712Z" fill="black"/>
<path opacity="0.4" d="M63.1526 31.4642C63.1526 39.4021 57.1673 45.83 49.7759 45.83H35.0855C27.694 45.83 21.7087 39.4021 21.7087 31.4642C21.7087 24.4403 26.4359 18.4496 32.8838 17.2972L33.0595 17.2575C34.6784 16.9694 36.2048 18.1417 36.4731 19.8703C36.7414 21.6089 35.6498 23.2482 34.0401 23.5363L33.8644 23.5661C30.2658 24.2118 27.6293 27.4605 27.6293 31.4642C27.6293 35.8852 30.9688 39.4717 35.0855 39.4717H49.7759C53.8925 39.4717 57.2321 35.8852 57.2321 31.4642C57.2321 27.4605 54.5956 24.2118 50.997 23.5661L50.8212 23.5363C49.2116 23.2482 48.12 21.6089 48.3882 19.8703C48.6565 18.1417 50.1829 16.9694 51.8018 17.2575L51.9776 17.2972C58.4254 18.4496 63.1526 24.4403 63.1526 31.4642Z" fill="black"/>
<path d="M76.5065 14.16C75.6532 14.16 75.0078 13.92 74.5705 13.44C74.1332 12.9493 73.9145 12.2507 73.9145 11.344V10.704H75.5785V11.472C75.5785 12.1973 75.8825 12.56 76.4905 12.56C76.7892 12.56 77.0132 12.4747 77.1625 12.304C77.3225 12.1227 77.4025 11.8347 77.4025 11.44C77.4025 10.9707 77.2958 10.56 77.0825 10.208C76.8692 9.84533 76.4745 9.41333 75.8985 8.912C75.1732 8.272 74.6665 7.696 74.3785 7.184C74.0905 6.66133 73.9465 6.07467 73.9465 5.424C73.9465 4.53867 74.1705 3.856 74.6185 3.376C75.0665 2.88533 75.7172 2.64 76.5705 2.64C77.4132 2.64 78.0478 2.88533 78.4745 3.376C78.9118 3.856 79.1305 4.54933 79.1305 5.456V5.92H77.4665V5.344C77.4665 4.96 77.3918 4.68267 77.2425 4.512C77.0932 4.33067 76.8745 4.24 76.5865 4.24C75.9998 4.24 75.7065 4.59733 75.7065 5.312C75.7065 5.71733 75.8132 6.096 76.0265 6.448C76.2505 6.8 76.6505 7.22667 77.2265 7.728C77.9625 8.368 78.4692 8.94933 78.7465 9.472C79.0238 9.99467 79.1625 10.608 79.1625 11.312C79.1625 12.2293 78.9332 12.9333 78.4745 13.424C78.0265 13.9147 77.3705 14.16 76.5065 14.16ZM81.4848 2.8H83.8688L85.6928 14H83.9328L83.6128 11.776V11.808H81.6128L81.2928 14H79.6608L81.4848 2.8ZM83.4048 10.288L82.6208 4.752H82.5888L81.8207 10.288H83.4048ZM85.6295 2.8H87.4055L88.5575 11.488H88.5895L89.7415 2.8H91.3575L89.6615 14H87.3255L85.6295 2.8ZM92.2029 2.8H97.0029V4.4H93.9629V7.36H96.3789V8.96H93.9629V12.4H97.0029V14H92.2029V2.8ZM78.397 28.232L76.269 21.8H78.141L79.341 25.912H79.373L80.573 21.8H82.285L80.157 28.232V33H78.397V28.232ZM85.3406 33.16C84.4766 33.16 83.8153 32.9147 83.3566 32.424C82.898 31.9333 82.6686 31.24 82.6686 30.344V24.456C82.6686 23.56 82.898 22.8667 83.3566 22.376C83.8153 21.8853 84.4766 21.64 85.3406 21.64C86.2046 21.64 86.866 21.8853 87.3246 22.376C87.7833 22.8667 88.0126 23.56 88.0126 24.456V30.344C88.0126 31.24 87.7833 31.9333 87.3246 32.424C86.866 32.9147 86.2046 33.16 85.3406 33.16ZM85.3406 31.56C85.9486 31.56 86.2526 31.192 86.2526 30.456V24.344C86.2526 23.608 85.9486 23.24 85.3406 23.24C84.7326 23.24 84.4286 23.608 84.4286 24.344V30.456C84.4286 31.192 84.7326 31.56 85.3406 31.56ZM91.7629 33.16C90.9095 33.16 90.2589 32.92 89.8109 32.44C89.3629 31.9493 89.1389 31.2507 89.1389 30.344V21.8H90.8989V30.472C90.8989 30.856 90.9735 31.1333 91.1229 31.304C91.2829 31.4747 91.5069 31.56 91.7949 31.56C92.0829 31.56 92.3015 31.4747 92.4509 31.304C92.6109 31.1333 92.6909 30.856 92.6909 30.472V21.8H94.3869V30.344C94.3869 31.2507 94.1629 31.9493 93.7149 32.44C93.2669 32.92 92.6162 33.16 91.7629 33.16ZM95.6404 21.8H98.2484C99.155 21.8 99.8164 22.0133 100.232 22.44C100.648 22.856 100.856 23.5013 100.856 24.376V25.064C100.856 26.2267 100.472 26.9627 99.7044 27.272V27.304C100.131 27.432 100.43 27.6933 100.6 28.088C100.782 28.4827 100.872 29.0107 100.872 29.672V31.64C100.872 31.96 100.883 32.2213 100.904 32.424C100.926 32.616 100.979 32.808 101.064 33H99.2724C99.2084 32.8187 99.1657 32.648 99.1444 32.488C99.123 32.328 99.1124 32.04 99.1124 31.624V29.576C99.1124 29.064 99.027 28.7067 98.8564 28.504C98.6964 28.3013 98.4137 28.2 98.0084 28.2H97.4004V33H95.6404V21.8ZM98.0404 26.6C98.3924 26.6 98.6537 26.5093 98.8244 26.328C99.0057 26.1467 99.0964 25.8427 99.0964 25.416V24.552C99.0964 24.1467 99.0217 23.8533 98.8724 23.672C98.7337 23.4907 98.5097 23.4 98.2004 23.4H97.4004V26.6H98.0404ZM71.656 40.8H73.416V50.4H76.312V52H71.656V40.8ZM77.156 40.8H78.916V52H77.156V40.8ZM80.2341 40.8H82.4421L84.1541 47.504H84.1861V40.8H85.7541V52H83.9461L81.8341 43.824H81.8021V52H80.2341V40.8ZM87.0623 40.8H88.8223V45.52L91.0623 40.8H92.8223L90.7263 44.912L92.8543 52H91.0143L89.5263 47.008L88.8223 48.432V52H87.0623V40.8ZM93.8313 45.472V40.8H95.5913V45.472L95.3673 49.04H94.0553L93.8313 45.472ZM93.8633 50.304H95.5593V52H93.8633V50.304Z" fill="black"/>
</svg>
